<svg xmlns="http://www.w3.org/2000/svg" viewBox="0 0 1024 1024">
  <rect width="1024" height="1024" rx="230" fill="#FAF7F0"/>
  <!-- sun -->
  <g fill="#E6C98C">
    <circle cx="395" cy="390" r="150"/>
    <polygon points="560,409 560,371 617,390" fill="#E6C98C"/>
    <polygon points="528,489 547,456 587,501" fill="#E6C98C"/>
    <polygon points="461,542 494,523 506,582" fill="#E6C98C"/>
    <polygon points="376,555 414,555 395,612" fill="#E6C98C"/>
    <polygon points="296,523 329,542 284,582" fill="#E6C98C"/>
    <polygon points="243,456 262,489 203,501" fill="#E6C98C"/>
    <polygon points="230,371 230,409 173,390" fill="#E6C98C"/>
    <polygon points="262,291 243,324 203,279" fill="#E6C98C"/>
    <polygon points="329,238 296,257 284,198" fill="#E6C98C"/>
    <polygon points="414,225 376,225 395,168" fill="#E6C98C"/>
    <polygon points="494,257 461,238 506,198" fill="#E6C98C"/>
    <polygon points="547,324 528,291 587,279" fill="#E6C98C"/>
  </g>
  <g transform="translate(560 600)">
    <path d="M-205 -30
             C-228 -120 -158 -200 -78 -188
             C-52 -236 52 -236 78 -188
             C158 -200 228 -120 205 -30
             C232 18 214 86 158 104
             C168 150 110 188 40 172
             C8 196 -8 196 -40 172
             C-110 188 -168 150 -158 104
             C-214 86 -232 18 -205 -30 Z"
          fill="#7A9B7A"/>
    <path d="M0 -188 C-22 -150 18 -120 -6 -78" fill="none" stroke="#5F7D5C" stroke-width="12" stroke-linecap="round"/>
    <g fill="none" stroke="#5F7D5C" stroke-width="11" stroke-linecap="round">
      <path d="M-60 -150 C-120 -150 -132 -96 -84 -80"/>
      <path d="M-150 -92 C-196 -74 -190 -22 -150 -14"/>
      <path d="M60 -150 C120 -150 132 -96 84 -80"/>
      <path d="M150 -92 C196 -74 190 -22 150 -14"/>
      <path d="M-118 -40 C-150 -28 -150 4 -120 14"/>
      <path d="M118 -40 C150 -28 150 4 120 14"/>
    </g>
    <circle cx="-118" cy="78" r="30" fill="#F2B8C6" fill-opacity="0.8"/>
    <circle cx="118" cy="78" r="30" fill="#F2B8C6" fill-opacity="0.8"/>
    <ellipse cx="-58" cy="60" rx="30" ry="38" fill="#2E3A2E"/>
    <ellipse cx="58" cy="60" rx="30" ry="38" fill="#2E3A2E"/>
    <circle cx="-48" cy="46" r="10" fill="#FAF7F0"/>
    <circle cx="68" cy="46" r="10" fill="#FAF7F0"/>
    <path d="M-26 108 C-8 126 8 126 26 108" fill="none" stroke="#2E3A2E" stroke-width="11" stroke-linecap="round"/>
  </g>
</svg>