<svg xmlns="http://www.w3.org/2000/svg" viewBox="0 0 1024 1024">
  <rect width="1024" height="1024" rx="230" fill="#FAF7F0"/>
  <!-- sun -->
  <g fill="#E6C98C">
    <circle cx="300" cy="300" r="140"/>
    <polygon points="455,318 455,282 512,300" fill="#E6C98C"/>
    <polygon points="425,393 443,362 484,406" fill="#E6C98C"/>
    <polygon points="362,443 393,425 406,484" fill="#E6C98C"/>
    <polygon points="282,455 318,455 300,512" fill="#E6C98C"/>
    <polygon points="207,425 238,443 194,484" fill="#E6C98C"/>
    <polygon points="157,362 175,393 116,406" fill="#E6C98C"/>
    <polygon points="145,282 145,318 88,300" fill="#E6C98C"/>
    <polygon points="175,207 157,238 116,194" fill="#E6C98C"/>
    <polygon points="238,157 207,175 194,116" fill="#E6C98C"/>
    <polygon points="318,145 282,145 300,88" fill="#E6C98C"/>
    <polygon points="393,175 362,157 406,116" fill="#E6C98C"/>
    <polygon points="443,238 425,207 484,194" fill="#E6C98C"/>
  </g>
  <g transform="translate(560 580) scale(1.34)">
    <path d="M-205 -30
             C-228 -120 -158 -200 -78 -188
             C-52 -236 52 -236 78 -188
             C158 -200 228 -120 205 -30
             C232 18 214 86 158 104
             C168 150 110 188 40 172
             C8 196 -8 196 -40 172
             C-110 188 -168 150 -158 104
             C-214 86 -232 18 -205 -30 Z"
          fill="#7A9B7A"/>
    <!-- gyri kept high (y < -60), clear of the brow zone -->
    <path d="M0 -185 C-18 -150 16 -122 -4 -92" fill="none" stroke="#5F7D5C" stroke-width="12" stroke-linecap="round"/>
    <g fill="none" stroke="#5F7D5C" stroke-width="11" stroke-linecap="round">
      <path d="M-44 -150 C-54 -124 54 -124 44 -150"/>
      <path d="M-100 -150 C-136 -150 -140 -110 -104 -104"/>
      <path d="M100 -150 C136 -150 140 -110 104 -104"/>
      <path d="M-156 -120 C-190 -108 -188 -70 -154 -66"/>
      <path d="M156 -120 C190 -108 188 -70 154 -66"/>
    </g>
    <!-- face: calm, friendly -->
    <circle cx="-118" cy="86" r="30" fill="#F2B8C6" fill-opacity="0.8"/>
    <circle cx="118" cy="86" r="30" fill="#F2B8C6" fill-opacity="0.8"/>
    <ellipse cx="-56" cy="66" rx="30" ry="37" fill="#2E3A2E"/>
    <ellipse cx="56" cy="66" rx="30" ry="37" fill="#2E3A2E"/>
    <circle cx="-46" cy="52" r="10" fill="#FAF7F0"/>
    <circle cx="66" cy="52" r="10" fill="#FAF7F0"/>
    <path d="M-26 114 C-8 132 8 132 26 114" fill="none" stroke="#2E3A2E" stroke-width="11" stroke-linecap="round"/>
  </g>
</svg>